<svg width="20" height="19" viewBox="0 0 20 19" fill="none" xmlns="http://www.w3.org/2000/svg">
<path d="M10 9.09091C9.4606 9.09091 8.93331 9.25086 8.48481 9.55054C8.03631 9.85021 7.68675 10.2762 7.48033 10.7745C7.27391 11.2728 7.2199 11.8212 7.32513 12.3502C7.43036 12.8793 7.69011 13.3652 8.07153 13.7467C8.45294 14.1281 8.9389 14.3878 9.46794 14.4931C9.99697 14.5983 10.5453 14.5443 11.0437 14.3379C11.542 14.1314 11.968 13.7819 12.2676 13.3334C12.5673 12.8849 12.7273 12.3576 12.7273 11.8182C12.7273 11.0949 12.4399 10.4012 11.9285 9.88971C11.417 9.37825 10.7233 9.09091 10 9.09091ZM10 12.7273C9.8202 12.7273 9.64443 12.674 9.49494 12.5741C9.34544 12.4742 9.22892 12.3322 9.16011 12.1661C9.0913 12 9.0733 11.8172 9.10838 11.6408C9.14345 11.4645 9.23004 11.3025 9.35718 11.1754C9.48431 11.0482 9.6463 10.9616 9.82265 10.9266C9.99899 10.8915 10.1818 10.9095 10.3479 10.9783C10.514 11.0471 10.656 11.1636 10.7559 11.3131C10.8558 11.4626 10.9091 11.6384 10.9091 11.8182C10.9091 12.0593 10.8133 12.2905 10.6428 12.461C10.4723 12.6315 10.2411 12.7273 10 12.7273ZM9.35455 7.00909C9.441 7.09186 9.54295 7.15673 9.65455 7.2C9.76336 7.2481 9.88103 7.27294 10 7.27294C10.119 7.27294 10.2366 7.2481 10.3455 7.2C10.457 7.15673 10.559 7.09186 10.6455 7.00909L12.7273 4.96364C12.9033 4.78763 13.0022 4.54891 13.0022 4.3C13.0022 4.05109 12.9033 3.81237 12.7273 3.63636C12.5513 3.46036 12.3125 3.36148 12.0636 3.36148C11.8147 3.36148 11.576 3.46036 11.4 3.63636L10.9091 4.17273V0.909091C10.9091 0.667985 10.8133 0.436754 10.6428 0.266266C10.4723 0.0957789 10.2411 0 10 0C9.75889 0 9.52766 0.0957789 9.35718 0.266266C9.18669 0.436754 9.09091 0.667985 9.09091 0.909091V4.17273L8.6 3.63636C8.42399 3.46036 8.18528 3.36148 7.93636 3.36148C7.68745 3.36148 7.44873 3.46036 7.27273 3.63636C7.09672 3.81237 6.99784 4.05109 6.99784 4.3C6.99784 4.54891 7.09672 4.78763 7.27273 4.96364L9.35455 7.00909ZM16.3636 11.8182C16.3636 11.6384 16.3103 11.4626 16.2104 11.3131C16.1105 11.1636 15.9686 11.0471 15.8024 10.9783C15.6363 10.9095 15.4535 10.8915 15.2772 10.9266C15.1008 10.9616 14.9389 11.0482 14.8117 11.1754C14.6846 11.3025 14.598 11.4645 14.5629 11.6408C14.5278 11.8172 14.5458 12 14.6147 12.1661C14.6835 12.3322 14.8 12.4742 14.9495 12.5741C15.099 12.674 15.2747 12.7273 15.4545 12.7273C15.6957 12.7273 15.9269 12.6315 16.0974 12.461C16.2679 12.2905 16.3636 12.0593 16.3636 11.8182ZM17.2727 5.45455H14.5455C14.3043 5.45455 14.0731 5.55032 13.9026 5.72081C13.7321 5.8913 13.6364 6.12253 13.6364 6.36364C13.6364 6.60474 13.7321 6.83597 13.9026 7.00646C14.0731 7.17695 14.3043 7.27273 14.5455 7.27273H17.2727C17.5138 7.27273 17.7451 7.36851 17.9156 7.53899C18.086 7.70948 18.1818 7.94071 18.1818 8.18182V15.4545C18.1818 15.6957 18.086 15.9269 17.9156 16.0974C17.7451 16.2679 17.5138 16.3636 17.2727 16.3636H2.72727C2.48617 16.3636 2.25494 16.2679 2.08445 16.0974C1.91396 15.9269 1.81818 15.6957 1.81818 15.4545V8.18182C1.81818 7.94071 1.91396 7.70948 2.08445 7.53899C2.25494 7.36851 2.48617 7.27273 2.72727 7.27273H5.45455C5.69565 7.27273 5.92688 7.17695 6.09737 7.00646C6.26786 6.83597 6.36364 6.60474 6.36364 6.36364C6.36364 6.12253 6.26786 5.8913 6.09737 5.72081C5.92688 5.55032 5.69565 5.45455 5.45455 5.45455H2.72727C2.00396 5.45455 1.31026 5.74188 0.7988 6.25334C0.287337 6.76481 0 7.4585 0 8.18182V15.4545C0 16.1779 0.287337 16.8716 0.7988 17.383C1.31026 17.8945 2.00396 18.1818 2.72727 18.1818H17.2727C17.996 18.1818 18.6897 17.8945 19.2012 17.383C19.7127 16.8716 20 16.1779 20 15.4545V8.18182C20 7.4585 19.7127 6.76481 19.2012 6.25334C18.6897 5.74188 17.996 5.45455 17.2727 5.45455ZM3.63636 11.8182C3.63636 11.998 3.68968 12.1737 3.78957 12.3232C3.88947 12.4727 4.03145 12.5893 4.19756 12.6581C4.36368 12.7269 4.54646 12.7449 4.72281 12.7098C4.89916 12.6747 5.06114 12.5881 5.18828 12.461C5.31542 12.3339 5.402 12.1719 5.43708 11.9955C5.47216 11.8192 5.45415 11.6364 5.38535 11.4703C5.31654 11.3042 5.20002 11.1622 5.05052 11.0623C4.90102 10.9624 4.72526 10.9091 4.54545 10.9091C4.30435 10.9091 4.07312 11.0049 3.90263 11.1754C3.73214 11.3458 3.63636 11.5771 3.63636 11.8182Z" fill="#F2FBF6"/>
</svg>
