<svg width="20" height="16" viewBox="0 0 20 16" fill="none" xmlns="http://www.w3.org/2000/svg">
<g clip-path="url(#clip0_8_28)">
<g clip-path="url(#clip1_8_28)">
<g clip-path="url(#clip2_8_28)">
<path d="M8.12512 7.6884H10.0001V8.9384H8.12512V7.6884Z" fill="#FFF4F4"/>
<path d="M15.2814 5.91924C14.1729 4.10536 12.6607 2.57181 10.8626 1.43799C10.0319 0.911513 9.085 0.596388 8.1045 0.520126C7.12399 0.443865 6.13972 0.608785 5.23762 1.00049C4.44856 1.37268 3.76196 1.93134 3.23711 2.62824C2.71226 3.32514 2.36493 4.13933 2.22512 5.00049C2.17512 5.29424 2.13762 5.57549 2.10012 5.85049C1.51496 5.94533 0.982545 6.24503 0.597891 6.69608C0.213237 7.14713 0.00137724 7.72019 0.00012207 8.31299V12.1442C0.00012207 12.4758 0.131818 12.7937 0.366239 13.0281C0.600659 13.2625 0.918601 13.3942 1.25012 13.3942V8.31299C1.25012 7.98147 1.38182 7.66352 1.61624 7.4291C1.85066 7.19468 2.1686 7.06299 2.50012 7.06299H14.2064C15.4109 7.06464 16.5657 7.54389 17.4175 8.39565C18.2692 9.24741 18.7485 10.4022 18.7501 11.6067V12.063H17.5001C17.2362 11.4193 16.7444 10.8953 16.1188 10.5911C15.4932 10.2868 14.7774 10.2236 14.1081 10.4134C13.4388 10.6032 12.8628 11.0328 12.49 11.6202C12.1173 12.2076 11.9738 12.9117 12.0871 13.5982C12.2004 14.2846 12.5624 14.9053 13.1041 15.3418C13.6458 15.7783 14.3293 16.0001 15.0241 15.9648C15.7189 15.9296 16.3764 15.6397 16.8711 15.1506C17.3659 14.6615 17.6632 14.0073 17.7064 13.313H18.7501C19.0816 13.313 19.3996 13.1813 19.634 12.9469C19.8684 12.7124 20.0001 12.3945 20.0001 12.063V11.6067C19.9976 10.2579 19.5251 8.95219 18.6638 7.91415C17.8026 6.87611 16.6065 6.17068 15.2814 5.91924ZM5.62512 5.81299H3.08137C3.08137 5.61924 3.13762 5.41924 3.17512 5.18799C3.2831 4.5014 3.5649 3.85384 3.99372 3.30687C4.42255 2.7599 4.98414 2.33171 5.62512 2.06299V5.81299ZM6.87512 5.81299V1.80049C8.04197 1.64896 9.22534 1.90506 10.2251 2.52549C11.59 3.3756 12.7679 4.49403 13.6876 5.81299H6.87512ZM14.8751 14.8005C14.5661 14.8005 14.264 14.7088 14.007 14.5372C13.7501 14.3655 13.5498 14.1214 13.4316 13.8359C13.3133 13.5504 13.2824 13.2363 13.3426 12.9332C13.4029 12.6301 13.5517 12.3517 13.7703 12.1331C13.9888 11.9146 14.2672 11.7658 14.5703 11.7055C14.8734 11.6452 15.1876 11.6762 15.4731 11.7944C15.7586 11.9127 16.0026 12.113 16.1743 12.3699C16.346 12.6269 16.4376 12.929 16.4376 13.238C16.4376 13.6524 16.273 14.0498 15.98 14.3428C15.687 14.6359 15.2895 14.8005 14.8751 14.8005Z" fill="#FFF4F4"/>
<path d="M7.60644 12.0626C7.34247 11.4189 6.85075 10.895 6.22511 10.5907C5.59947 10.2865 4.88371 10.2232 4.2144 10.413C3.5451 10.6028 2.96911 11.0324 2.59635 11.6198C2.22359 12.2073 2.08016 12.9113 2.19342 13.5978C2.30668 14.2842 2.6687 14.9049 3.21041 15.3414C3.75212 15.7779 4.43558 15.9997 5.13039 15.9645C5.8252 15.9292 6.4827 15.6393 6.97743 15.1502C7.47217 14.6611 7.7695 14.007 7.81269 13.3126H11.1252V13.1564C11.1128 12.7876 11.1549 12.419 11.2502 12.0626H7.60644ZM5.00019 14.8001C4.69115 14.8001 4.38906 14.7085 4.13211 14.5368C3.87516 14.3651 3.67489 14.1211 3.55662 13.8355C3.43836 13.55 3.40742 13.2359 3.46771 12.9328C3.528 12.6297 3.67681 12.3513 3.89533 12.1327C4.11385 11.9142 4.39226 11.7654 4.69536 11.7051C4.99845 11.6448 5.31262 11.6758 5.59813 11.794C5.88364 11.9123 6.12767 12.1126 6.29936 12.3695C6.47105 12.6265 6.56269 12.9286 6.56269 13.2376C6.56269 13.652 6.39807 14.0494 6.10504 14.3425C5.81201 14.6355 5.41459 14.8001 5.00019 14.8001Z" fill="#FFF4F4"/>
</g>
</g>
</g>
<defs>
<clipPath id="clip0_8_28">
<rect width="20" height="16" fill="white"/>
</clipPath>
<clipPath id="clip1_8_28">
<rect width="20" height="16" fill="white"/>
</clipPath>
<clipPath id="clip2_8_28">
<rect width="20" height="16" fill="white"/>
</clipPath>
</defs>
</svg>
